HIERARCHY
ROOT pelvis
{
  OFFSET 0 100 0
  CHANNELS 6 Xposition Yposition Zposition Zrotation Xrotation Yrotation
  JOINT pelvis_right_femur
  {
    OFFSET -10.78128 -3.44521 -0.5502486
    CHANNELS 3 Zrotation Xrotation Yrotation
    JOINT right_femur_tibia
    {
      OFFSET -0.8047443 -44.0398 -0.1307829
      CHANNELS 3 Zrotation Xrotation Yrotation
      JOINT right_tibia_foot
      {
        OFFSET 3.006224 -47.83518 -5
        CHANNELS 3 Zrotation Xrotation Yrotation
        End Site
        {
          OFFSET 0 -5 15
        }
      }
    }
  }
  JOINT pelvis_left_femur
  {
    OFFSET 10.78128 -3.44521 -0.5502486
    CHANNELS 3 Zrotation Xrotation Yrotation
    JOINT left_femur_tibia
    {
      OFFSET 0.8047443 -44.0398 -0.1307829
      CHANNELS 3 Zrotation Xrotation Yrotation
      JOINT left_tibia_foot
      {
        OFFSET -4.370144 -48.10324 -4.275266
        CHANNELS 3 Zrotation Xrotation Yrotation
        End Site
        {
          OFFSET 0 -5 15
        }
      }
    }
  }
  JOINT pelvis_spine1
  {
    OFFSET 0 6.468898 -3.129235
    CHANNELS 3 Zrotation Xrotation Yrotation
    JOINT spine1
    {
      OFFSET 0 23.15396 4.99043
      CHANNELS 3 Zrotation Xrotation Yrotation
      JOINT spine2
      {
        OFFSET 0 20.79997 -5.064912
        CHANNELS 3 Zrotation Xrotation Yrotation
        JOINT neck
        {
          OFFSET 0 14.38658 9.616178
          CHANNELS 3 Zrotation Xrotation Yrotation
          End Site
          {
            OFFSET 0 20 0
          }
        }
      }
      JOINT right_manubrium
      {
        OFFSET -5.722621 16.35077 3.967754
        CHANNELS 3 Zrotation Xrotation Yrotation
        JOINT right_clavicle
        {
          OFFSET -13.16364 1.694482 -4.693211
          CHANNELS 3 Zrotation Xrotation Yrotation
          JOINT right_humerus
          {
            OFFSET -28.5034 -0.3100689 -2.792744
            CHANNELS 3 Zrotation Xrotation Yrotation
            JOINT right_radius
            {
              OFFSET -25.15693 0.02248979 -1.271978
              CHANNELS 3 Zrotation Xrotation Yrotation
              End Site
              {
                OFFSET -15 0 0
              }
            }
          }
        }
      }
      JOINT left_manubrium
      {
        OFFSET 5.722621 16.35077 3.967754
        CHANNELS 3 Zrotation Xrotation Yrotation
        JOINT left_clavicle
        {
          OFFSET 13.16364 1.694482 -4.693211
          CHANNELS 3 Zrotation Xrotation Yrotation
          JOINT left_humerus
          {
            OFFSET 29.39168 -1.063119 -2.237045
            CHANNELS 3 Zrotation Xrotation Yrotation
            JOINT left_radius
            {
              OFFSET 24.59957 -0.9528479 0.9047498
              CHANNELS 3 Zrotation Xrotation Yrotation
              End Site
              {
                OFFSET 15 -0 -0
              }
            }
          }
        }
      }
    }
  }
}
MOTION
Frames: 21
Frame Time: 0.0416666666667
66.00405 100.1402 3146.302 2.543117 -6.34243 3.604755 -0.3263206 16.96571 5.875469 -0 33.52695 -0 6.285419 -7.249411 -3.06075 -2.552142 -21.63779 -6.394765 -0 22.27569 -0 -6.47258 -9.11362 18.3941 -0.04209267 -3.506401 7.656138 1.72865 14.10142 -6.016415 0.8205502 20.42633 2.247416 -0.7271758 -20.73955 5.372047 -3.993865 -34.20991 11.90034 87.93178 18.42548 -5.446148 -0 0 29.24728 -22.27361 14.037 15.64299 0.3755703 -19.91896 -6.225617 -96.21393 12.79032 39.80395 0 0 -2.855716 5.660057 13.41604 3.541963
67.78198 100.6941 3153.31 2.97384 -6.62008 4.180239 -0.7427094 14.23963 5.812519 -0 42.21671 -0 7.003424 -3.503362 -4.374241 -3.92486 -17.62059 -7.157985 -0 23.21939 -0 -6.144518 -9.893814 17.49894 -0.004417085 -3.467371 7.655387 1.725087 14.15761 -6.041495 0.8342847 20.44983 2.224593 -0.7075183 -20.72634 5.340038 -3.999949 -34.10194 11.92327 88.05266 18.39206 -5.648955 -0 0 29.08688 -22.21251 13.99837 15.48257 0.3611703 -19.99068 -6.316841 -96.16617 12.78409 39.68014 0 0 -2.947576 5.699815 13.43006 3.498974
69.49527 101.7132 3159.989 3.123133 -7.089563 5.146121 -0.6665111 9.608863 5.417468 -0 50.13 -0 7.166063 -1.185141 -5.797093 -4.939204 -12.5445 -7.799758 -0 23.30334 -0 -5.979031 -10.98976 16.74833 0.03911885 -3.427386 7.662764 1.727297 14.21656 -6.075883 0.8442329 20.4681 2.196508 -0.6861045 -20.69943 5.294385 -4.000156 -33.9896 11.95083 88.1768 18.3524 -5.877157 -0 0 28.91928 -22.13105 13.96209 15.2996 0.3416149 -20.07796 -6.419833 -96.11762 12.76874 39.56413 0 0 -3.060186 5.73007 13.43683 3.47143
71.08756 102.8935 3166.176 3.015259 -7.549261 6.354705 -0.3307454 3.396817 4.769605 -0 55.00749 -0 6.587787 -0.7093534 -7.015196 -5.500334 -7.071278 -8.257076 -0 22.12899 -0 -5.727624 -12.30244 16.13097 0.08648808 -3.388284 7.677488 1.734672 14.27536 -6.117335 0.8502526 20.48053 2.164752 -0.6638395 -20.66116 5.237888 -3.995192 -33.87791 11.98124 88.29843 18.30818 -6.118903 -0 0 28.75268 -22.03461 13.92972 15.10385 0.3184106 -20.17606 -6.529137 -96.07072 12.7456 39.46028 0 0 -3.187388 5.74981 13.43654 3.459944
72.54275 103.8678 3171.871 2.806581 -7.835058 7.636799 -0.04443596 -3.570332 4.03956 -0 55.271 -0 5.494213 -1.697533 -7.946438 -5.681955 -1.802919 -8.542285 -0 19.94142 -0 -5.309835 -13.75095 15.56257 0.1354079 -3.351782 7.698562 1.746457 14.33106 -6.163364 0.8522383 20.48677 2.131129 -0.6415568 -20.61401 5.173657 -3.985669 -33.77188 12.01275 88.41176 18.26157 -6.361917 -0 0 28.59517 -21.92877 13.90242 14.90529 0.2930799 -20.27988 -6.639193 -96.02786 12.71612 39.37283 0 0 -3.322188 5.758515 13.42948 3.464515
73.87692 104.3395 3177.244 2.671761 -7.85266 8.864739 0.002786061 -10.28462 3.325064 -0 50.77255 -0 4.355869 -3.311499 -8.651862 -5.646767 2.916032 -8.703099 -0 17.40919 -0 -4.902168 -15.27163 14.9326 0.1831808 -3.319577 7.724787 1.761796 14.38061 -6.211228 0.8500532 20.48668 2.097708 -0.620073 -20.5605 5.105156 -3.971977 -33.67678 12.0436 88.51058 18.21552 -6.593047 -0 0 28.455 -21.81928 13.88104 14.71441 0.2671423 -20.38369 -6.744174 -95.99143 12.68182 39.30627 0 0 -3.456545 5.756158 13.41595 3.484493
75.12516 104.1759 3182.552 2.701937 -7.5862 9.971857 -0.1950391 -15.94714 2.64598 -0 42.78857 -0 3.557568 -4.708816 -9.188158 -5.55151 7.015766 -8.773793 -0 15.32386 -0 -4.774078 -16.75907 14.17464 0.2268106 -3.293272 7.754697 1.779713 14.421 -6.257999 0.8436297 20.48043 2.066719 -0.6002104 -20.50332 5.036211 -3.954397 -33.59785 12.0721 88.58876 18.17357 -6.798841 -0 0 28.34012 -21.71204 13.8661 14.54183 0.2420827 -20.4814 -6.838205 -95.96359 12.64431 39.26478 0 0 -3.581717 5.743343 13.3964 3.518367
76.32724 103.43 3188.051 2.869411 -7.100086 10.9369 -0.4790438 -20.15624 2.05535 -0 33.41354 -0 3.210053 -5.364267 -9.590485 -5.476877 10.57547 -8.750283 -0 14.378 -0 -5.069877 -18.01628 13.31719 0.2633152 -3.274244 7.78653 1.799107 14.44968 -6.300746 0.8331282 20.46857 2.040332 -0.5828387 -20.44539 4.970893 -3.933322 -33.53983 12.09673 88.64111 18.13931 -6.966708 -0 0 28.25733 -21.61298 13.8579 14.39761 0.219286 -20.56692 -6.915785 -95.94606 12.60547 39.25148 0 0 -3.689088 5.721322 13.37168 3.563713
77.51155 102.3027 3193.937 3.059265 -6.53796 11.75768 -0.5847008 -22.84098 1.702951 -0 24.81848 -0 3.173273 -5.175324 -9.91237 -5.405808 13.66839 -8.61102 -0 15.06083 -0 -5.73797 -18.7744 12.48975 0.2900542 -3.263593 7.818305 1.818822 14.46483 -6.336768 0.8190284 20.45195 2.020399 -0.5689299 -20.38989 4.913305 -3.909465 -33.50654 12.11616 88.66396 18.11574 -7.085928 -0 0 28.21176 -21.52778 13.85664 14.29062 0.1999589 -20.63466 -6.972153 -95.93995 12.56748 39.26792 0 0 -3.771067 5.691799 13.34307 3.617451
78.68333 101.0769 3200.308 3.135163 -6.105684 12.42759 -0.2464935 -24.08062 1.77202 -0 18.6896 -0 3.192813 -4.404245 -10.21203 -5.24985 16.2547 -8.360508 -0 17.62641 -0 -6.601214 -18.77367 11.88844 0.3049653 -3.262142 7.847987 1.837753 14.46539 -6.36379 0.8021162 20.43162 2.008269 -0.559579 -20.34013 4.867306 -3.883942 -33.50076 12.12933 88.65539 18.10484 -7.148252 -0 0 28.2067 -21.46164 13.86264 14.22812 0.1850733 -20.6799 -7.0035 -95.94575 12.53273 39.31404 0 0 -3.821768 5.65661 13.31225 3.676258
79.82571 100.046 3207.161 3.007649 -6.029663 12.91659 0.6730633 -23.9595 2.344658 -0 15.89152 -0 3.038806 -3.535042 -10.50381 -4.908191 18.14239 -8.050789 -0 22.09203 -0 -7.453766 -17.86559 11.71992 0.3067161 -3.27044 7.87366 1.854929 14.4511 -6.380107 0.783406 20.40866 2.004706 -0.5559427 -20.29938 4.836232 -3.858251 -33.52415 12.13541 88.6152 18.10743 -7.148225 -0 0 28.24366 -21.41897 13.8763 14.21545 0.1753477 -20.6991 -7.00711 -95.9634 12.50369 39.38828 0 0 -3.837438 5.617453 13.28114 3.736965
80.91429 99.45028 3214.388 2.686421 -6.488988 13.16197 2.083742 -22.51804 3.301531 -0 16.29691 -0 2.59435 -3.093107 -10.74176 -4.343885 19.01084 -7.75974 -0 28.24441 -0 -8.120424 -16.11191 12.13836 0.2948106 -3.288702 7.893681 1.869553 14.42238 -6.384659 0.7640509 20.38412 2.009864 -0.5590764 -20.27058 4.822618 -3.834184 -33.57707 12.13384 88.54486 18.12307 -7.083527 -0 0 28.32231 -21.40317 13.89803 14.25564 0.1712682 -20.69014 -6.981537 -95.9923 12.48265 39.48769 0 0 -3.816698 5.575803 13.25173 3.796743
81.93497 99.42638 3221.789 2.296526 -7.523833 13.08688 3.655692 -19.79251 4.33591 -0 18.80728 -0 1.88984 -3.454857 -10.84788 -3.649305 18.48958 -7.54152 -0 35.62191 -0 -8.490612 -13.84833 13.17646 0.2696594 -3.316658 7.906766 1.88097 14.3804 -6.377066 0.7452659 20.35903 2.023346 -0.569683 -20.25615 4.827955 -3.813684 -33.6582 12.12435 88.44751 18.15026 -6.955414 -0 0 28.44016 -21.41632 13.92791 14.3489 0.1731329 -20.6526 -6.926867 -96.03125 12.47152 39.60767 0 0 -3.760637 5.533047 13.22594 3.853026
82.89332 99.97746 3229.11 2.03116 -8.948039 12.65746 4.937069 -15.91386 5.109393 -0 21.69545 -0 1.096441 -4.674889 -10.74348 -3.036623 16.28353 -7.386373 -0 43.44187 -0 -8.553646 -11.62712 14.6784 0.2326082 -3.353348 7.912021 1.888586 14.32712 -6.357613 0.7282722 20.33448 2.044288 -0.5878116 -20.25774 4.852502 -3.798645 -33.76411 12.10705 88.32811 18.18673 -6.769257 -0 0 28.59212 -21.45895 13.96525 14.492 0.1810913 -20.58799 -6.845044 -96.07834 12.47151 39.74176 0 0 -3.672735 5.490842 13.20556 3.903178
83.81351 100.9712 3236.127 2.036339 -10.35141 11.93748 5.580579 -11.21427 5.485802 -0 23.33845 -0 0.4926383 -6.394122 -10.35886 -2.694494 12.32524 -7.218007 -0 50.53963 -0 -8.424297 -9.962579 16.29847 0.1859272 -3.396888 7.908939 1.891797 14.26542 -6.327233 0.7142628 20.31184 2.071448 -0.6125872 -20.27598 4.895151 -3.790689 -33.88874 12.08254 88.19362 18.22979 -6.535086 -0 0 28.76992 -21.52974 14.00816 14.67764 0.1951311 -20.49987 -6.740244 -96.13078 12.48301 39.88131 0 0 -3.55867 5.451536 13.19218 3.944062
84.73061 102.1735 3242.746 2.289432 -11.28971 11.05937 5.544531 -6.221598 5.64334 -0 23.04501 -0 0.3754823 -7.993307 -9.661742 -2.587429 6.901962 -6.931483 -0 55.51504 -0 -8.313451 -9.018057 17.66814 0.1327709 -3.444331 7.897411 1.88997 14.19923 -6.287519 0.7043689 20.29278 2.103241 -0.6420995 -20.31033 4.953354 -3.790944 -34.02331 12.05204 88.05307 18.27659 -6.267908 -0 0 28.96176 -21.62519 14.0533 14.89404 0.2149652 -20.39395 -6.619104 -96.18489 12.50541 40.01555 0 0 -3.426014 5.418376 13.18713 3.971892
85.67686 103.3061 3249.032 2.591461 -11.57749 10.12677 5.08876 -1.434854 5.866263 -0 21.28327 -0 0.8636081 -9.086445 -8.715579 -2.433463 0.6471561 -6.465741 -0 57.16788 -0 -8.409795 -8.592581 18.66842 0.07705052 -3.491807 7.877832 1.882592 14.13343 -6.240767 0.6995719 20.27923 2.137728 -0.6735835 -20.35891 5.023178 -3.799843 -34.15678 12.01745 87.91718 18.32416 -5.987206 -0 0 29.1529 -21.73945 14.09625 15.12529 0.2398312 -20.27781 -6.490537 -96.23634 12.53714 40.13257 0 0 -3.283812 5.395117 13.19132 3.982813
86.67017 104.107 3255.127 2.7165 -11.36033 9.178145 4.551804 2.937669 6.199004 -0 19.03735 -0 1.742678 -9.926013 -7.647169 -1.957064 -5.684997 -5.877373 -0 54.98371 -0 -8.741242 -8.446654 19.47458 0.02313075 -3.534993 7.851251 1.869543 14.07339 -6.189984 0.700531 20.27291 2.172635 -0.7038795 -20.41851 5.099514 -3.816951 -34.27735 11.98129 87.79728 18.36941 -5.715252 -0 0 29.32722 -21.86443 14.13232 15.35284 0.2683065 -20.1603 -6.364912 -96.2808 12.57585 40.22122 0 0 -3.141976 5.385103 13.2049 3.974072
87.71941 104.3904 3261.147 2.569607 -10.85992 8.227478 4.119996 6.926037 6.429992 -0 17.07049 -0 2.622975 -11.10605 -6.516362 -1.142701 -11.51975 -5.323109 -0 49.38294 -0 -9.164884 -8.489493 20.25519 -0.02464054 -3.569762 7.81943 1.851348 14.02434 -6.138787 0.7074004 20.275 2.205474 -0.7299782 -20.48466 5.17649 -3.84088 -34.37408 11.94649 87.70377 18.40927 -5.474637 -0 0 29.46936 -21.99032 14.15752 15.55758 0.2982766 -20.05073 -6.252854 -96.3145 12.61859 40.27303 0 0 -3.010574 5.390374 13.22706 3.945008
88.84056 104.1004 3267.17 2.211354 -10.15435 7.294151 3.777184 10.51847 6.393027 -0 15.79763 -0 3.264033 -12.84399 -5.312734 -0.2211783 -16.54782 -4.934544 -0 41.65111 -0 -9.471196 -8.647163 20.93236 -0.06245725 -3.592795 7.784736 1.829253 13.99066 -6.091123 0.7197377 20.28579 2.233754 -0.7494833 -20.55203 5.24805 -3.869407 -34.43842 11.91612 87.64488 18.44099 -5.285621 -0 0 29.56664 -22.10657 14.1692 15.72209 0.3271198 -19.95781 -6.163964 -96.33465 12.66206 40.28341 0 0 -2.899103 5.411224 13.25605 3.897354
90.0654 103.3299 3273.272 1.800885 -9.23913 6.409364 3.388924 13.55932 6.134361 -0 15.50502 -0 3.684894 -14.6621 -4.079339 0.4967684 -20.576 -4.743232 -0 33.58509 -0 -9.472194 -8.772871 21.27901 -0.0875403 -3.602108 7.749885 1.805129 13.97522 -6.050841 0.7365175 20.30463 2.255265 -0.76095 -20.61504 5.308647 -3.899794 -34.46542 11.89289 87.6254 18.46243 -5.163478 -0 0 29.61089 -22.20327 14.16639 15.83298 0.3520932 -19.88867 -6.105526 -96.33971 12.70292 40.25221 0 0 -2.815651 5.446082 13.28937 3.835012
